<svg width="500" height="500" viewBox="0 0 500 500" fill="none" xmlns="http://www.w3.org/2000/svg"><g clip-path="url(#clip0_807_4)"><rect width="500" height="500" fill="white"/><rect width="500" height="500" fill="#D2D2CE"/><ellipse cx="247" cy="380.5" rx="58.5" ry="41.5" fill="#B6B6B0"/><path d="M199.649 253.325C193.53 267.92 193.271 280.46 196.237 297.263C198.796 311.767 215.433 320.725 242.308 320.725C269.182 320.725 289.658 307.501 289.658 297.263C289.658 290.438 331.275 287.939 357.485 274.654C383.695 261.37 415.5 241.845 415.5 188.949C415.5 103.206 319.552 79.3128 242.308 78.0373C163.121 76.7297 85 109.752 85 188.949C85 222 116 231.449 136 226.877C153.5 222.877 166.205 211.429 172 192.5C179.5 168 203.37 154.72 242.308 155.249C280.394 155.766 318.239 166.729 318.239 188.949C318.239 203.415 277.287 221.758 242.308 226.877C219.699 230.186 205.769 238.73 199.649 253.325Z" fill="#B6B6B0"/></g><defs><clipPath id="clip0_807_4"><rect width="500" height="500" fill="white"/></clipPath></defs></svg>